<mxfile host="app.diagrams.net" modified="2022-08-04T10:47:23.054Z" agent="5.0 (Windows NT 10.0; WOW64) AppleWebKit/537.36 (KHTML, like Gecko) Chrome/103.0.0.0 Safari/537.36" etag="HmQ6PYoEvUM0yaRrnN5i" version="20.2.2" type="github">
  <diagram id="C5RBs43oDa-KdzZeNtuy" name="Page-1">
    <mxGraphModel dx="2489" dy="762" grid="1" gridSize="10" guides="1" tooltips="1" connect="1" arrows="1" fold="1" page="1" pageScale="1" pageWidth="827" pageHeight="1169" math="0" shadow="0">
      <root>
        <mxCell id="WIyWlLk6GJQsqaUBKTNV-0" />
        <mxCell id="WIyWlLk6GJQsqaUBKTNV-1" parent="WIyWlLk6GJQsqaUBKTNV-0" />
        <mxCell id="DfPQgu7uiCnyI50WISQx-32" value="" style="edgeStyle=orthogonalEdgeStyle;rounded=0;orthogonalLoop=1;jettySize=auto;html=1;" edge="1" parent="WIyWlLk6GJQsqaUBKTNV-1" source="DfPQgu7uiCnyI50WISQx-0" target="DfPQgu7uiCnyI50WISQx-31">
          <mxGeometry relative="1" as="geometry" />
        </mxCell>
        <mxCell id="DfPQgu7uiCnyI50WISQx-0" value="开始考试" style="ellipse;whiteSpace=wrap;html=1;" vertex="1" parent="WIyWlLk6GJQsqaUBKTNV-1">
          <mxGeometry x="150" y="80" width="120" height="80" as="geometry" />
        </mxCell>
        <mxCell id="DfPQgu7uiCnyI50WISQx-38" style="edgeStyle=orthogonalEdgeStyle;rounded=0;orthogonalLoop=1;jettySize=auto;html=1;entryX=0.5;entryY=0;entryDx=0;entryDy=0;" edge="1" parent="WIyWlLk6GJQsqaUBKTNV-1" source="DfPQgu7uiCnyI50WISQx-3" target="DfPQgu7uiCnyI50WISQx-37">
          <mxGeometry relative="1" as="geometry" />
        </mxCell>
        <mxCell id="DfPQgu7uiCnyI50WISQx-61" value="" style="edgeStyle=orthogonalEdgeStyle;rounded=0;orthogonalLoop=1;jettySize=auto;html=1;" edge="1" parent="WIyWlLk6GJQsqaUBKTNV-1" source="DfPQgu7uiCnyI50WISQx-3" target="DfPQgu7uiCnyI50WISQx-60">
          <mxGeometry relative="1" as="geometry" />
        </mxCell>
        <mxCell id="DfPQgu7uiCnyI50WISQx-3" value="是否存在试卷" style="rhombus;whiteSpace=wrap;html=1;" vertex="1" parent="WIyWlLk6GJQsqaUBKTNV-1">
          <mxGeometry x="112.5" y="350" width="195" height="80" as="geometry" />
        </mxCell>
        <mxCell id="DfPQgu7uiCnyI50WISQx-34" style="edgeStyle=orthogonalEdgeStyle;rounded=0;orthogonalLoop=1;jettySize=auto;html=1;exitX=1;exitY=0.5;exitDx=0;exitDy=0;entryX=0.5;entryY=1;entryDx=0;entryDy=0;" edge="1" parent="WIyWlLk6GJQsqaUBKTNV-1" source="DfPQgu7uiCnyI50WISQx-31" target="DfPQgu7uiCnyI50WISQx-33">
          <mxGeometry relative="1" as="geometry" />
        </mxCell>
        <mxCell id="DfPQgu7uiCnyI50WISQx-36" style="edgeStyle=orthogonalEdgeStyle;rounded=0;orthogonalLoop=1;jettySize=auto;html=1;exitX=0.5;exitY=1;exitDx=0;exitDy=0;entryX=0.5;entryY=0;entryDx=0;entryDy=0;" edge="1" parent="WIyWlLk6GJQsqaUBKTNV-1" source="DfPQgu7uiCnyI50WISQx-31" target="DfPQgu7uiCnyI50WISQx-3">
          <mxGeometry relative="1" as="geometry" />
        </mxCell>
        <mxCell id="DfPQgu7uiCnyI50WISQx-31" value="权限、时间、限流校验" style="rhombus;whiteSpace=wrap;html=1;" vertex="1" parent="WIyWlLk6GJQsqaUBKTNV-1">
          <mxGeometry x="120" y="230" width="180" height="80" as="geometry" />
        </mxCell>
        <mxCell id="DfPQgu7uiCnyI50WISQx-33" value="结束请求" style="ellipse;whiteSpace=wrap;html=1;" vertex="1" parent="WIyWlLk6GJQsqaUBKTNV-1">
          <mxGeometry x="640" y="80" width="120" height="80" as="geometry" />
        </mxCell>
        <mxCell id="DfPQgu7uiCnyI50WISQx-35" value="否" style="text;html=1;align=center;verticalAlign=middle;resizable=0;points=[];autosize=1;strokeColor=none;fillColor=none;" vertex="1" parent="WIyWlLk6GJQsqaUBKTNV-1">
          <mxGeometry x="400" y="245" width="40" height="30" as="geometry" />
        </mxCell>
        <mxCell id="DfPQgu7uiCnyI50WISQx-42" value="" style="edgeStyle=orthogonalEdgeStyle;rounded=0;orthogonalLoop=1;jettySize=auto;html=1;" edge="1" parent="WIyWlLk6GJQsqaUBKTNV-1" source="DfPQgu7uiCnyI50WISQx-37" target="DfPQgu7uiCnyI50WISQx-41">
          <mxGeometry relative="1" as="geometry" />
        </mxCell>
        <mxCell id="DfPQgu7uiCnyI50WISQx-46" value="" style="edgeStyle=orthogonalEdgeStyle;rounded=0;orthogonalLoop=1;jettySize=auto;html=1;" edge="1" parent="WIyWlLk6GJQsqaUBKTNV-1" source="DfPQgu7uiCnyI50WISQx-37" target="DfPQgu7uiCnyI50WISQx-45">
          <mxGeometry relative="1" as="geometry" />
        </mxCell>
        <mxCell id="DfPQgu7uiCnyI50WISQx-37" value="是否存在未分配试卷" style="rhombus;whiteSpace=wrap;html=1;" vertex="1" parent="WIyWlLk6GJQsqaUBKTNV-1">
          <mxGeometry x="110" y="470" width="200" height="85" as="geometry" />
        </mxCell>
        <mxCell id="DfPQgu7uiCnyI50WISQx-40" value="否" style="text;html=1;align=center;verticalAlign=middle;resizable=0;points=[];autosize=1;strokeColor=none;fillColor=none;" vertex="1" parent="WIyWlLk6GJQsqaUBKTNV-1">
          <mxGeometry x="210" y="435" width="40" height="30" as="geometry" />
        </mxCell>
        <mxCell id="DfPQgu7uiCnyI50WISQx-53" value="" style="edgeStyle=orthogonalEdgeStyle;rounded=0;orthogonalLoop=1;jettySize=auto;html=1;" edge="1" parent="WIyWlLk6GJQsqaUBKTNV-1" source="DfPQgu7uiCnyI50WISQx-41" target="DfPQgu7uiCnyI50WISQx-52">
          <mxGeometry relative="1" as="geometry" />
        </mxCell>
        <mxCell id="DfPQgu7uiCnyI50WISQx-41" value="分配试卷" style="whiteSpace=wrap;html=1;" vertex="1" parent="WIyWlLk6GJQsqaUBKTNV-1">
          <mxGeometry x="150" y="640" width="120" height="60" as="geometry" />
        </mxCell>
        <mxCell id="DfPQgu7uiCnyI50WISQx-43" value="存在" style="text;html=1;align=center;verticalAlign=middle;resizable=0;points=[];autosize=1;strokeColor=none;fillColor=none;" vertex="1" parent="WIyWlLk6GJQsqaUBKTNV-1">
          <mxGeometry x="192" y="585" width="50" height="30" as="geometry" />
        </mxCell>
        <mxCell id="DfPQgu7uiCnyI50WISQx-49" value="" style="edgeStyle=orthogonalEdgeStyle;rounded=0;orthogonalLoop=1;jettySize=auto;html=1;" edge="1" parent="WIyWlLk6GJQsqaUBKTNV-1" source="DfPQgu7uiCnyI50WISQx-45" target="DfPQgu7uiCnyI50WISQx-48">
          <mxGeometry relative="1" as="geometry" />
        </mxCell>
        <mxCell id="DfPQgu7uiCnyI50WISQx-51" value="" style="edgeStyle=orthogonalEdgeStyle;rounded=0;orthogonalLoop=1;jettySize=auto;html=1;" edge="1" parent="WIyWlLk6GJQsqaUBKTNV-1" source="DfPQgu7uiCnyI50WISQx-45" target="DfPQgu7uiCnyI50WISQx-50">
          <mxGeometry relative="1" as="geometry" />
        </mxCell>
        <mxCell id="DfPQgu7uiCnyI50WISQx-45" value="生成试卷" style="whiteSpace=wrap;html=1;" vertex="1" parent="WIyWlLk6GJQsqaUBKTNV-1">
          <mxGeometry x="430" y="482.5" width="120" height="60" as="geometry" />
        </mxCell>
        <mxCell id="DfPQgu7uiCnyI50WISQx-47" value="不存在" style="text;html=1;align=center;verticalAlign=middle;resizable=0;points=[];autosize=1;strokeColor=none;fillColor=none;" vertex="1" parent="WIyWlLk6GJQsqaUBKTNV-1">
          <mxGeometry x="330" y="485" width="60" height="30" as="geometry" />
        </mxCell>
        <mxCell id="DfPQgu7uiCnyI50WISQx-55" style="edgeStyle=orthogonalEdgeStyle;rounded=0;orthogonalLoop=1;jettySize=auto;html=1;entryX=0.5;entryY=0;entryDx=0;entryDy=0;" edge="1" parent="WIyWlLk6GJQsqaUBKTNV-1" source="DfPQgu7uiCnyI50WISQx-48" target="DfPQgu7uiCnyI50WISQx-52">
          <mxGeometry relative="1" as="geometry">
            <Array as="points">
              <mxPoint x="600" y="750" />
              <mxPoint x="390" y="750" />
            </Array>
          </mxGeometry>
        </mxCell>
        <mxCell id="DfPQgu7uiCnyI50WISQx-48" value="随机组卷" style="whiteSpace=wrap;html=1;" vertex="1" parent="WIyWlLk6GJQsqaUBKTNV-1">
          <mxGeometry x="540" y="640" width="120" height="60" as="geometry" />
        </mxCell>
        <mxCell id="DfPQgu7uiCnyI50WISQx-54" style="edgeStyle=orthogonalEdgeStyle;rounded=0;orthogonalLoop=1;jettySize=auto;html=1;exitX=0.5;exitY=1;exitDx=0;exitDy=0;entryX=0.5;entryY=0;entryDx=0;entryDy=0;" edge="1" parent="WIyWlLk6GJQsqaUBKTNV-1" source="DfPQgu7uiCnyI50WISQx-50" target="DfPQgu7uiCnyI50WISQx-52">
          <mxGeometry relative="1" as="geometry" />
        </mxCell>
        <mxCell id="DfPQgu7uiCnyI50WISQx-50" value="手动组卷" style="whiteSpace=wrap;html=1;" vertex="1" parent="WIyWlLk6GJQsqaUBKTNV-1">
          <mxGeometry x="330" y="640" width="120" height="60" as="geometry" />
        </mxCell>
        <mxCell id="DfPQgu7uiCnyI50WISQx-56" style="edgeStyle=orthogonalEdgeStyle;rounded=0;orthogonalLoop=1;jettySize=auto;html=1;entryX=0.5;entryY=1;entryDx=0;entryDy=0;" edge="1" parent="WIyWlLk6GJQsqaUBKTNV-1" source="DfPQgu7uiCnyI50WISQx-52" target="DfPQgu7uiCnyI50WISQx-33">
          <mxGeometry relative="1" as="geometry" />
        </mxCell>
        <mxCell id="DfPQgu7uiCnyI50WISQx-75" value="" style="edgeStyle=orthogonalEdgeStyle;rounded=0;orthogonalLoop=1;jettySize=auto;html=1;" edge="1" parent="WIyWlLk6GJQsqaUBKTNV-1" source="DfPQgu7uiCnyI50WISQx-52" target="DfPQgu7uiCnyI50WISQx-74">
          <mxGeometry relative="1" as="geometry" />
        </mxCell>
        <mxCell id="DfPQgu7uiCnyI50WISQx-80" value="" style="edgeStyle=orthogonalEdgeStyle;rounded=0;orthogonalLoop=1;jettySize=auto;html=1;" edge="1" parent="WIyWlLk6GJQsqaUBKTNV-1" source="DfPQgu7uiCnyI50WISQx-52" target="DfPQgu7uiCnyI50WISQx-79">
          <mxGeometry relative="1" as="geometry">
            <Array as="points">
              <mxPoint x="390" y="930" />
              <mxPoint x="25" y="930" />
            </Array>
          </mxGeometry>
        </mxCell>
        <mxCell id="DfPQgu7uiCnyI50WISQx-52" value="是否为答辩题，答辩题不需要参加考试" style="rhombus;whiteSpace=wrap;html=1;" vertex="1" parent="WIyWlLk6GJQsqaUBKTNV-1">
          <mxGeometry x="270" y="800" width="240" height="85" as="geometry" />
        </mxCell>
        <mxCell id="DfPQgu7uiCnyI50WISQx-67" value="" style="edgeStyle=orthogonalEdgeStyle;rounded=0;orthogonalLoop=1;jettySize=auto;html=1;" edge="1" parent="WIyWlLk6GJQsqaUBKTNV-1" source="DfPQgu7uiCnyI50WISQx-60" target="DfPQgu7uiCnyI50WISQx-66">
          <mxGeometry relative="1" as="geometry" />
        </mxCell>
        <mxCell id="DfPQgu7uiCnyI50WISQx-70" value="" style="edgeStyle=orthogonalEdgeStyle;rounded=0;orthogonalLoop=1;jettySize=auto;html=1;" edge="1" parent="WIyWlLk6GJQsqaUBKTNV-1" source="DfPQgu7uiCnyI50WISQx-60" target="DfPQgu7uiCnyI50WISQx-69">
          <mxGeometry relative="1" as="geometry" />
        </mxCell>
        <mxCell id="DfPQgu7uiCnyI50WISQx-78" value="" style="edgeStyle=orthogonalEdgeStyle;rounded=0;orthogonalLoop=1;jettySize=auto;html=1;" edge="1" parent="WIyWlLk6GJQsqaUBKTNV-1" source="DfPQgu7uiCnyI50WISQx-60" target="DfPQgu7uiCnyI50WISQx-77">
          <mxGeometry relative="1" as="geometry" />
        </mxCell>
        <mxCell id="DfPQgu7uiCnyI50WISQx-60" value="是否允许继续考试" style="rhombus;whiteSpace=wrap;html=1;" vertex="1" parent="WIyWlLk6GJQsqaUBKTNV-1">
          <mxGeometry x="-162.5" y="350" width="195" height="80" as="geometry" />
        </mxCell>
        <mxCell id="DfPQgu7uiCnyI50WISQx-62" value="是" style="text;html=1;align=center;verticalAlign=middle;resizable=0;points=[];autosize=1;strokeColor=none;fillColor=none;" vertex="1" parent="WIyWlLk6GJQsqaUBKTNV-1">
          <mxGeometry x="50" y="365" width="40" height="30" as="geometry" />
        </mxCell>
        <mxCell id="DfPQgu7uiCnyI50WISQx-66" value="提交试卷" style="ellipse;whiteSpace=wrap;html=1;" vertex="1" parent="WIyWlLk6GJQsqaUBKTNV-1">
          <mxGeometry x="-400" y="360" width="120" height="60" as="geometry" />
        </mxCell>
        <mxCell id="DfPQgu7uiCnyI50WISQx-68" value="不允许" style="text;html=1;align=center;verticalAlign=middle;resizable=0;points=[];autosize=1;strokeColor=none;fillColor=none;" vertex="1" parent="WIyWlLk6GJQsqaUBKTNV-1">
          <mxGeometry x="-250" y="355" width="60" height="30" as="geometry" />
        </mxCell>
        <mxCell id="DfPQgu7uiCnyI50WISQx-82" style="edgeStyle=orthogonalEdgeStyle;rounded=0;orthogonalLoop=1;jettySize=auto;html=1;entryX=0.45;entryY=-0.05;entryDx=0;entryDy=0;entryPerimeter=0;" edge="1" parent="WIyWlLk6GJQsqaUBKTNV-1" source="DfPQgu7uiCnyI50WISQx-69" target="DfPQgu7uiCnyI50WISQx-79">
          <mxGeometry relative="1" as="geometry" />
        </mxCell>
        <mxCell id="DfPQgu7uiCnyI50WISQx-69" value="继续考试" style="whiteSpace=wrap;html=1;" vertex="1" parent="WIyWlLk6GJQsqaUBKTNV-1">
          <mxGeometry x="-230" y="525" width="120" height="60" as="geometry" />
        </mxCell>
        <mxCell id="DfPQgu7uiCnyI50WISQx-71" value="允许" style="text;html=1;align=center;verticalAlign=middle;resizable=0;points=[];autosize=1;strokeColor=none;fillColor=none;" vertex="1" parent="WIyWlLk6GJQsqaUBKTNV-1">
          <mxGeometry x="-85" y="455" width="50" height="30" as="geometry" />
        </mxCell>
        <mxCell id="DfPQgu7uiCnyI50WISQx-74" value="结束考试" style="ellipse;whiteSpace=wrap;html=1;" vertex="1" parent="WIyWlLk6GJQsqaUBKTNV-1">
          <mxGeometry x="10" y="812.5" width="120" height="60" as="geometry" />
        </mxCell>
        <mxCell id="DfPQgu7uiCnyI50WISQx-76" value="是" style="text;html=1;align=center;verticalAlign=middle;resizable=0;points=[];autosize=1;strokeColor=none;fillColor=none;" vertex="1" parent="WIyWlLk6GJQsqaUBKTNV-1">
          <mxGeometry x="160" y="815" width="40" height="30" as="geometry" />
        </mxCell>
        <mxCell id="DfPQgu7uiCnyI50WISQx-83" style="edgeStyle=orthogonalEdgeStyle;rounded=0;orthogonalLoop=1;jettySize=auto;html=1;entryX=0.5;entryY=0;entryDx=0;entryDy=0;" edge="1" parent="WIyWlLk6GJQsqaUBKTNV-1" source="DfPQgu7uiCnyI50WISQx-77" target="DfPQgu7uiCnyI50WISQx-79">
          <mxGeometry relative="1" as="geometry">
            <mxPoint x="-160" y="890" as="targetPoint" />
            <Array as="points">
              <mxPoint x="25" y="760" />
              <mxPoint x="-170" y="760" />
              <mxPoint x="-170" y="900" />
            </Array>
          </mxGeometry>
        </mxCell>
        <mxCell id="DfPQgu7uiCnyI50WISQx-77" value="重新考试，删除答案" style="whiteSpace=wrap;html=1;" vertex="1" parent="WIyWlLk6GJQsqaUBKTNV-1">
          <mxGeometry x="-35" y="525" width="120" height="60" as="geometry" />
        </mxCell>
        <mxCell id="DfPQgu7uiCnyI50WISQx-85" value="" style="edgeStyle=orthogonalEdgeStyle;rounded=0;orthogonalLoop=1;jettySize=auto;html=1;" edge="1" parent="WIyWlLk6GJQsqaUBKTNV-1" source="DfPQgu7uiCnyI50WISQx-79" target="DfPQgu7uiCnyI50WISQx-84">
          <mxGeometry relative="1" as="geometry" />
        </mxCell>
        <mxCell id="DfPQgu7uiCnyI50WISQx-79" value="从新计算考试开始时间" style="whiteSpace=wrap;html=1;" vertex="1" parent="WIyWlLk6GJQsqaUBKTNV-1">
          <mxGeometry x="-220" y="900" width="120" height="60" as="geometry" />
        </mxCell>
        <mxCell id="DfPQgu7uiCnyI50WISQx-81" value="否" style="text;html=1;align=center;verticalAlign=middle;resizable=0;points=[];autosize=1;strokeColor=none;fillColor=none;" vertex="1" parent="WIyWlLk6GJQsqaUBKTNV-1">
          <mxGeometry x="190" y="915" width="40" height="30" as="geometry" />
        </mxCell>
        <mxCell id="DfPQgu7uiCnyI50WISQx-84" value="返回结果" style="ellipse;whiteSpace=wrap;html=1;" vertex="1" parent="WIyWlLk6GJQsqaUBKTNV-1">
          <mxGeometry x="-220" y="1040" width="120" height="60" as="geometry" />
        </mxCell>
      </root>
    </mxGraphModel>
  </diagram>
</mxfile>
